<svg version="1.1" viewBox="0.0 0.0 356.1994750656168 352.06561679790025" fill="none" stroke="none" stroke-linecap="square" stroke-miterlimit="10" xmlns:xlink="http://www.w3.org/1999/xlink" xmlns="http://www.w3.org/2000/svg"><clipPath id="p.0"><path d="m0 0l356.19946 0l0 352.0656l-356.19946 0l0 -352.0656z" clip-rule="nonzero"/></clipPath><g clip-path="url(#p.0)"><path fill="#000000" fill-opacity="0.0" d="m0 0l356.19946 0l0 352.0656l-356.19946 0z" fill-rule="evenodd"/><defs><linearGradient id="p.1" gradientUnits="userSpaceOnUse" gradientTransform="matrix(18.141873987220908 0.0 0.0 18.141873987220908 0.0 0.0)" spreadMethod="pad" x1="0.6796593030468373" y1="0.6303774020819596" x2="0.6759646563186135" y2="18.772251013089953"><stop offset="0.0" stop-color="#ffffff"/><stop offset="1.0" stop-color="#ffae85"/></linearGradient></defs><path fill="url(#p.1)" d="m12.33028 66.34819l0 0c0 -30.28975 24.554691 -54.844444 54.84444 -54.844444l221.85 0l0 0c14.545654 0 28.495544 5.7782364 38.780853 16.063564c10.285339 10.285328 16.063568 24.23523 16.063568 38.78088l0 219.3712c0 30.289734 -24.554688 54.84442 -54.84442 54.84442l-221.85 0c-30.28975 0 -54.84444 -24.554688 -54.84444 -54.84442z" fill-rule="evenodd"/><path stroke="#f76820" stroke-width="18.20734908136483" stroke-linejoin="round" stroke-linecap="butt" d="m12.33028 66.34819l0 0c0 -30.28975 24.554691 -54.844444 54.84444 -54.844444l221.85 0l0 0c14.545654 0 28.495544 5.7782364 38.780853 16.063564c10.285339 10.285328 16.063568 24.23523 16.063568 38.78088l0 219.3712c0 30.289734 -24.554688 54.84442 -54.84442 54.84442l-221.85 0c-30.28975 0 -54.84444 -24.554688 -54.84444 -54.84442z" fill-rule="evenodd"/><path fill="#ffae85" d="m94.510765 57.446903c-7.1315155 0 -12.272835 0.4115486 -15.423965 1.2346458c-4.643776 1.3169518 -8.458298 3.2375107 -11.443581 5.761673c-2.985283 2.496727 -5.5006638 5.8439865 -7.546135 10.041779c-2.0178337 4.197792 -3.3999023 9.753693 -4.146225 16.667702c-0.41462326 4.3624115 -0.6633949 13.416466 -0.7463188 27.162178c-0.082927704 13.745712 -0.7877846 23.458252 -2.1145782 29.137604c-1.3267899 5.679367 -4.0080223 10.151535 -8.043678 13.416473c-4.0080223 3.2375183 -9.20462 4.9385834 -15.589809 5.103195l0 20.12471c6.385189 0.16462708 11.581787 1.8931274 15.589809 5.1855164c4.035656 3.2923737 6.7168884 7.7782593 8.043678 13.457611c1.3267937 5.679367 2.0316505 15.926926 2.1145782 30.74266c0.08292389 14.815735 0.6357498 25.474838 1.6584892 31.97728c1.0503731 6.502472 3.3169785 11.866333 6.7998085 16.091553c3.48283 4.252655 7.8778343 7.3255615 13.185001 9.218658c3.6486816 1.3169556 9.536316 1.9754333 17.662926 1.9754333l6.9656525 0l0 -19.383911l-3.8559875 0c-7.8778305 0 -13.171181 -1.1111755 -15.880043 -3.3335266c-2.6812286 -2.2223816 -4.3535385 -6.13208 -5.0169373 -11.729126c-0.33169556 -3.0454712 -0.49754333 -12.593384 -0.49754333 -28.643768c0 -17.696564 -2.0592957 -30.427124 -6.1778793 -38.191666c-4.0909424 -7.791992 -10.697262 -13.581085 -19.818958 -17.36734c7.711979 -3.7039337 13.364662 -7.942871 16.958065 -12.716827c3.6210327 -4.7739563 6.1778717 -11.564514 7.670517 -20.371643c0.9121704 -5.679367 1.3682556 -19.301605 1.3682556 -40.86673c0 -10.700256 1.4097137 -17.586823 4.229149 -20.659721c2.8194351 -3.1003265 8.541229 -4.65049 17.165375 -4.65049l3.8559875 0l0 -19.383923z" fill-rule="evenodd"/><path fill="#ffae85" d="m254.84532 57.446903l0 19.383923l3.8560028 0c7.8778076 0 13.157349 1.0974579 15.838562 3.2923813c2.7088623 2.167488 4.353546 6.008606 4.934021 11.523354c0.41461182 3.1277618 0.6219177 12.716835 0.6219177 28.767212c0 17.696579 1.9487305 30.27623 5.8461914 37.738968c3.897461 7.4353027 10.614349 13.416473 20.150665 17.943497c-7.2973633 3.045456 -12.936218 7.311844 -16.916595 12.799149c-3.9803772 5.4598694 -6.633972 12.757996 -7.9607544 21.894363c-0.7463379 5.5147552 -1.1195068 18.560837 -1.1195068 39.138245c0 10.782547 -1.4096985 17.710281 -4.229126 20.783188c-2.819458 3.1003113 -8.541229 4.650482 -17.165375 4.650482l-3.8560028 0l0 19.383911l6.9656525 0c7.131531 0 12.272827 -0.45269775 15.423981 -1.3580933c4.6437683 -1.3169556 8.458282 -3.2375183 11.443573 -5.761688c2.9852905 -2.496704 5.486847 -5.830261 7.504669 -10.00061c2.0454712 -4.142914 3.4413757 -9.712555 4.187683 -16.708862c0.41464233 -4.3623962 0.6633911 -13.416473 0.7463379 -27.16217c0.08291626 -13.745712 0.78778076 -23.430817 2.114563 -29.055313c1.3267822 -5.651932 3.9942017 -10.124084 8.002228 -13.416458c4.0356445 -3.292389 9.246063 -5.0208893 15.631256 -5.1855164l0 -20.12471c-6.385193 -0.16461182 -11.595612 -1.8931122 -15.631256 -5.185501c-4.008026 -3.292389 -6.6754456 -7.750824 -8.002228 -13.37532c-1.3267822 -5.6519165 -2.0316467 -15.885757 -2.114563 -30.701492c-0.08294678 -14.815735 -0.64959717 -25.47483 -1.6999512 -31.977287c-1.0227661 -6.5024643 -3.2755432 -11.893745 -6.758362 -16.173843c-3.4828186 -4.2801056 -7.877838 -7.3255615 -13.184998 -9.136372c-3.6486816 -1.3169556 -9.536316 -1.9754333 -17.662933 -1.9754333z" fill-rule="evenodd"/><path fill="#ff935d" d="m93.76786 122.71308l0 0c0 -15.571678 12.623344 -28.195015 28.195023 -28.195015l112.776695 0l0 0c7.477783 0 14.649307 2.9705353 19.93689 8.258125c5.287613 5.2875977 8.258133 12.459106 8.258133 19.93689l0 114.9352c0 15.571686 -12.623337 28.195038 -28.195023 28.195038l-112.776695 0l0 0c-15.571678 0 -28.195023 -12.623352 -28.195023 -28.195038z" fill-rule="evenodd"/><defs><linearGradient id="p.2" gradientUnits="userSpaceOnUse" gradientTransform="matrix(13.524503748744314 0.0 0.0 13.524503748744314 0.0 0.0)" spreadMethod="pad" x1="6.646102810270777" y1="6.2534037800585445" x2="6.646054293298088" y2="19.777907528715833"><stop offset="0.0" stop-color="#ffece3"/><stop offset="1.0" stop-color="#ffc0a0"/></linearGradient></defs><path fill="url(#p.2)" d="m185.94174 84.85148c-0.9530182 -0.44378662 -3.985199 -0.2566681 -5.365326 -0.10324097c-1.3801117 0.15342712 -2.4441986 0.20790863 -2.9154053 1.0237885c-0.4711914 0.8158798 0.07350159 2.4375992 0.0881958 3.8714828c0.014709473 1.4338837 0 2.8161392 0 4.731804c0 1.9156723 0 4.098755 0 6.762192c0 2.6634293 0 6.674713 0 9.218422c0 2.5437012 0.17068481 4.7296524 0 6.043808c-0.17066956 1.3141556 -0.6010437 1.4998398 -1.0240631 1.8411026c-0.4230194 0.34126282 -0.7749939 0.29179382 -1.5140533 0.20648193c-0.73905945 -0.08531952 -2.1224365 -0.44522095 -2.9203033 -0.71837616c-0.79785156 -0.2731552 -1.1089935 -0.6990204 -1.8668365 -0.9205551c-0.757843 -0.22153473 -1.5720367 -0.32333374 -2.6802063 -0.40865326c-1.1081848 -0.08531189 -2.4515533 -0.18855286 -3.968872 -0.10324097c-1.5173187 0.08531952 -3.7932892 0.3075714 -5.1350403 0.6151352c-1.3417358 0.3075714 -1.7680206 0.61585236 -2.9154053 1.2302704c-1.1473694 0.614418 -2.8606873 1.5686646 -3.968872 2.4562378c-1.1081696 0.88757324 -1.6496124 1.4009018 -2.6802063 2.8692017c-1.0305939 1.4682922 -2.7839203 3.90876 -3.5033875 5.9405746c-0.71946716 2.0317993 -0.8721771 4.270096 -0.81336975 6.25029c0.058792114 1.9801788 0.34951782 3.7359772 1.166153 5.630844c0.8166504 1.8948822 2.2947693 4.1503754 3.7336884 5.738388c1.4389191 1.588028 3.3441315 2.8849792 4.8998413 3.7897491c1.5556946 0.90478516 2.8206635 1.3657837 4.4343567 1.6389313c1.613678 0.27316284 3.7116241 0.08531189 5.2477264 0c1.5361023 -0.08531189 2.7439117 -0.18711853 3.968872 -0.51190186c1.2249603 -0.32476807 2.3306885 -1.0094452 3.38089 -1.4367371c1.0502014 -0.42730713 2.0840607 -1.1105499 2.9203033 -1.1270294c0.8362427 -0.016494751 1.7084045 0.123306274 2.0971222 1.0280914c0.3887329 0.9047699 0.19599915 3.1208344 0.23519897 4.4005737c0.03919983 1.2797394 0 0.6316223 0 3.2778625c0 2.646225 0.13638306 10.106705 0 12.599518c-0.13638306 2.4927979 0.56266785 1.9644165 -0.8182678 2.3572998c-1.3809509 0.3928833 -4.706299 0 -7.4673615 0c-2.7610626 0 -6.6098785 0 -9.098999 0c-2.4891205 0 -3.968872 -0.15342712 -5.8357086 0c-1.8668518 0.15341187 -3.9068146 0.3398285 -5.365326 0.9205475c-1.4585266 0.580719 -2.5103607 1.5048523 -3.3858032 2.5637817c-0.87542725 1.0589142 -1.4585114 2.2196503 -1.8668365 3.7897491c-0.40830994 1.5700989 -0.6998596 4.0091248 -0.5830841 5.630844c0.11679077 1.6217194 0.8558502 2.613968 1.2837677 4.099472c0.42791748 1.4855042 1.0894012 3.123703 1.2837524 4.8135376c0.19436646 1.6898346 0.524292 3.6011963 -0.11759949 5.3254395c-0.6418762 1.7242432 -2.294754 4.063614 -3.733673 5.0200195c-1.4389191 0.9563904 -3.3833313 0.8373871 -4.8998413 0.71836853c-1.5164948 -0.119003296 -3.2077637 -0.7327118 -4.1991577 -1.4324493c-0.9914093 -0.6997223 -1.3017273 -1.6217194 -1.7492523 -2.7659454c-0.44750977 -1.1442413 -0.77989197 -2.8190155 -0.9358673 -4.099472c-0.15597534 -1.2804565 -0.27275085 -2.4397583 0 -3.5832672c0.2727661 -1.1435242 1.2086334 -1.8776703 1.6365509 -3.2778625c0.42791748 -1.400177 0.9113617 -3.244873 0.93096924 -5.1232605c0.019592285 -1.8783722 -0.13311768 -4.473709 -0.81336975 -6.147049c-0.68026733 -1.6733398 -2.1012268 -2.9373016 -3.268196 -3.8929749c-1.1669769 -0.9556885 -2.2751617 -1.534256 -3.7336807 -1.8411102c-1.458519 -0.30685425 -2.5666962 0 -5.017433 0c-2.450737 0 -6.0112915 0 -9.686989 0c-3.6756973 0 -9.508957 0 -12.367195 0c-2.8582458 0 -3.5981216 -0.091049194 -4.7822495 0c-1.1841278 0.091049194 -2.06855 0.020080566 -2.322525 0.5463104c-0.2539749 0.52622986 0.6655655 1.5242157 0.79867554 2.6110992c0.13311768 1.0868835 -0.48916626 3.1437836 0 3.9101868c0.48916626 0.76641846 1.43647 0.5735626 2.9350052 0.68826294c1.4985352 0.114715576 2.499733 0 6.0562057 0c3.5564651 0 11.820862 0 15.2826 0c3.4617386 0 4.2040634 -0.12402344 5.4878235 0c1.2837601 0.1240387 1.8064041 0.21006775 2.2147293 0.7441864c0.40831757 0.53411865 0.37156677 1.3851318 0.23519135 2.4605408c-0.13638306 1.0754089 -0.64514923 2.507141 -1.0534668 3.991928c-0.40831757 1.484787 -1.1824951 3.0900116 -1.3964539 4.9167786c-0.21395874 1.826767 -0.10126495 4.1998444 0.11269379 6.043808c0.21395874 1.8439789 0.54878235 3.4664154 1.1710663 5.0200195c0.6222763 1.5536194 1.5320129 3.038391 2.5626144 4.301651c1.0306015 1.2632446 2.2008438 2.4411774 3.6209793 3.2778473c1.4201355 0.8366699 2.917038 1.4518127 4.8998413 1.7421722c1.9828033 0.2903595 5.0133514 0.27314758 6.9969788 0c1.9836121 -0.27316284 3.3294373 -0.80226135 4.9047394 -1.6389313c1.5753021 -0.8366699 3.2445068 -2.0497284 4.547043 -3.3810883c1.3025513 -1.3313599 2.4899445 -2.8828278 3.2682037 -4.607071c0.7782593 -1.7242432 1.2453766 -3.7065735 1.4013519 -5.738388c0.15597534 -2.0318146 -0.15434265 -4.60849 -0.46548462 -6.452469c-0.31114197 -1.8439636 -1.0314178 -3.177475 -1.4013519 -4.6113586c-0.36994934 -1.4338837 -0.91545105 -3.019043 -0.8182831 -3.991928c0.09718323 -0.97288513 0.5847168 -1.5378418 1.4013519 -1.845398c0.8166504 -0.3075714 1.5540771 0 3.4984894 0c1.9444275 0 5.4453583 0 8.168045 0c2.7226715 0 6.1264343 0 8.16803 0c2.0415955 0 3.264923 -0.34126282 4.081558 0c0.8166504 0.34126282 0.6819 1.0058594 0.8182831 2.047577c0.13638306 1.0417175 0 2.205307 0 4.202713c0 1.9973907 0 5.0164337 0 7.781662c0 2.7652435 0 6.5220184 0 8.809769c0 2.2877655 -0.25315857 3.4484863 0 4.9167786c0.25315857 1.4682922 0.8966675 2.7659607 1.5189514 3.89299c0.62228394 1.1270294 1.3009033 2.0497437 2.2147217 2.8692017c0.91381836 0.819458 1.7704773 1.6719055 3.2682037 2.047577c1.4977112 0.37568665 4.2212067 0.35990906 5.718109 0.20648193c1.4969025 -0.15342712 1.9803467 -0.90478516 3.2632904 -1.1270294c1.2829437 -0.22225952 3.1309967 -0.39431763 4.4343567 -0.20648193c1.30336 0.1878357 2.2963867 0.59936523 3.385788 1.3335114c1.0894012 0.7341461 2.3919373 1.9450684 3.1506042 3.0713806c0.75865173 1.1263123 1.2069855 2.439743 1.4013519 3.6865082c0.1943512 1.2467499 0.11514282 2.564499 -0.23519897 3.7940521c-0.35032654 1.2295532 -0.99139404 2.6619873 -1.8668365 3.5832672c-0.8754425 0.92126465 -2.218811 1.5177612 -3.385788 1.9443359c-1.1669769 0.42658997 -2.2547455 0.6488342 -3.6160889 0.6151428c-1.3613281 -0.033706665 -3.249405 -0.5104675 -4.551941 -0.8173218c-1.3025513 -0.306839 -2.1167297 -0.86964417 -3.2633057 -1.0237885c-1.1465607 -0.15414429 -2.4295044 -0.15701294 -3.6160736 0.09893799c-1.1865845 0.25595093 -2.588745 0.7879181 -3.5033875 1.4367523c-0.91464233 0.6488342 -1.3237762 1.3464203 -1.984436 2.4562378c-0.6606598 1.1098175 -1.6300201 2.5802765 -1.979538 4.202713c-0.34951782 1.6224365 -0.09799194 1.9472046 -0.11759949 5.531906c-0.019592285 3.5847015 0 12.750061 0 15.976318c0 3.2262268 -0.27194214 2.6469421 0 3.381073c0.27194214 0.7341614 0.7766266 1.0238037 1.6316528 1.0238037c0.85502625 0 2.3511047 -0.71694946 3.4984894 -1.0238037c1.1473694 -0.30685425 2.8214874 -0.0831604 3.385788 -0.81729126c0.56430054 -0.7341614 0 -2.0848694 0 -3.5875854c0 -1.5027161 0 -2.6799316 0 -5.4286804c0 -2.7487488 -0.09718323 -8.622635 0 -11.0638275c0.09718323 -2.4411774 0.17475891 -2.8835297 0.5830841 -3.5832672c0.40830994 -0.69973755 1.0305939 -0.7004547 1.8668365 -0.61512756c0.8362427 0.08531189 2.0032196 0.8882904 3.150589 1.1270294c1.1473846 0.23873901 2.3919525 0.30541992 3.7336884 0.30541992c1.3417358 0 2.8582306 -0.08389282 4.316757 -0.30541992c1.4585266 -0.22154236 2.8590546 -0.44306946 4.4343567 -1.0237885c1.5753021 -0.58073425 3.6560974 -1.4188385 5.017441 -2.4605408c1.3613281 -1.0417175 2.2563782 -2.0483093 3.150589 -3.7897491c0.8942261 -1.7414551 1.903595 -4.72966 2.214737 -6.658951c0.31114197 -1.9292908 -0.056350708 -3.2613678 -0.3479004 -4.9167786c-0.29153442 -1.6554108 -0.73986816 -3.5309296 -1.4013519 -5.0157166c-0.6614685 -1.484787 -1.5565186 -2.8512726 -2.5675201 -3.89299c-1.0109863 -1.0417175 -2.1567383 -1.5887451 -3.4984741 -2.3572998c-1.3417511 -0.7685547 -2.5879364 -1.8102722 -4.551956 -2.2540588c-1.9640198 -0.44378662 -5.054184 -0.44306946 -7.2321625 -0.4086609c-2.1779785 0.03440857 -4.415573 0.5298157 -5.8357086 0.6151428c-1.4201355 0.08531189 -2.2375946 0.5964966 -2.6851196 -0.10324097c-0.44750977 -0.69973755 0 -2.8147125 0 -4.095169c0 -1.2804565 0 -1.6754913 0 -3.5875702c0 -1.9120789 0 -5.3756256 0 -7.884918c0 -2.5092926 0 -5.139023 0 -7.1708374c0 -2.0318146 -0.23355103 -4.0127106 0 -5.0200195c0.23356628 -1.007309 0.5651245 -0.8531647 1.4013519 -1.0237885c0.8362427 -0.17063904 1.7492523 0 3.6160889 0c1.8668365 0 5.2705994 0 7.5849457 0c2.3143616 0 4.667923 -0.05090332 6.3012085 0c1.6332703 0.05090332 2.7986145 -0.035842896 3.4984741 0.30541992c0.6998596 0.34126282 0.758667 1.0080109 0.7006836 1.742157c-0.0579834 0.7341461 -0.7186432 1.5191956 -1.0485687 2.6627197c-0.32992554 1.1435242 -0.67781067 2.610382 -0.93096924 4.19841c-0.25315857 1.5880127 -0.62635803 3.3488312 -0.5879822 5.329727c0.038391113 1.9809113 0.27357483 4.6099396 0.8182831 6.55571c0.544693 1.9457855 1.4772949 3.6678772 2.4499054 5.1189575c0.97262573 1.4510956 2.0048523 2.5458527 3.3858032 3.5875702c1.3809357 1.0417175 3.1105804 2.1680298 4.8998413 2.6627197c1.7892456 0.49468994 4.182831 0.3570404 5.8357086 0.30541992c1.6528778 -0.051620483 2.6622467 -0.18855286 4.081558 -0.6151428c1.4193268 -0.4265747 2.9954376 -0.9886627 4.4343567 -1.9443359c1.4389191 -0.9556885 3.1685638 -2.560196 4.199173 -3.7897491c1.0305939 -1.2295532 1.4013519 -2.1873932 1.984436 -3.5875702c0.58306885 -1.4001923 1.3776703 -3.0039825 1.5140381 -4.8135376c0.13638306 -1.8095703 -0.3846283 -4.2686768 -0.69577026 -6.0438232c-0.31114197 -1.7751312 -0.78152466 -3.3101044 -1.1710663 -4.6070557c-0.38954163 -1.296936 -1.0110016 -2.1845093 -1.166153 -3.1746063c-0.15516663 -0.99009705 -0.24255371 -2.2017365 0.23518372 -2.7659607c0.47773743 -0.5642395 0.9203491 -0.51620483 2.6312103 -0.6194458c1.7108612 -0.10322571 4.59198 0 7.633957 0c3.0419922 0 7.933655 0 10.61795 0c2.6842957 0 4.2432556 0.27244568 5.4878235 0c1.2445679 -0.27243042 1.7076111 -0.8667755 1.9795532 -1.634613c0.27194214 -0.7678528 -0.07595825 -2.033249 -0.3479004 -2.9724426c-0.27194214 -0.9391937 -0.89505005 -2.0138855 -1.2837524 -2.6627197c-0.3887329 -0.6488342 0.1763916 -1.0252228 -1.048584 -1.2302704c-1.2249451 -0.2050476 -4.103607 0 -6.301178 0c-2.197586 0 -4.4531403 0 -6.8842773 0c-2.431137 0 -5.544174 0 -7.7025604 0c-2.158371 0 -3.614441 -0.2903595 -5.2477264 0c-1.6332855 0.2903595 -3.2681885 0.87109375 -4.551956 1.7421722c-1.2837524 0.8710785 -2.470337 2.1357574 -3.150589 3.4843292c-0.68026733 1.3485718 -0.85339355 3.105072 -0.93096924 4.6070557c-0.07759094 1.5019989 0.13555908 3.1072235 0.46548462 4.404892c0.32992554 1.2976532 1.1253204 2.1178436 1.5140533 3.3810883c0.38871765 1.2632446 0.68188477 2.9351501 0.8182678 4.19841c0.13638306 1.2632446 0.11677551 2.2884674 0 3.3810883c-0.11677551 1.0926208 -0.27275085 2.218216 -0.7006836 3.1746216c-0.42791748 0.9563904 -0.8950348 1.8461151 -1.8668365 2.5637665c-0.97180176 0.7176666 -2.3886719 1.605957 -3.963974 1.7421722c-1.5752869 0.13621521 -4.0480804 -0.19070435 -5.487808 -0.92485046c-1.439743 -0.7341461 -2.4507446 -2.3702087 -3.1506042 -3.4800262c-0.6998596 -1.1098328 -0.91300964 -1.898468 -1.0485687 -3.1789246c-0.13555908 -1.2804565 -0.017959595 -3.087143 0.23519897 -4.5038147c0.25315857 -1.416687 0.8754425 -2.6985626 1.2837524 -3.996231c0.4083252 -1.2976685 0.97180176 -2.321457 1.1661682 -3.7897491c0.1943512 -1.4682922 0.23355103 -3.6714478 0 -5.0200195c-0.23356628 -1.3485718 -0.7398834 -2.0640717 -1.4013519 -3.0713806c-0.66148376 -1.0072937 -1.5761261 -2.3572998 -2.5675201 -2.9724274c-0.9914093 -0.6151428 -2.1559296 -0.53053284 -3.38089 -0.7183838c-1.2249603 -0.1878357 -0.7602997 -0.34054565 -3.968872 -0.40864563c-3.2085876 -0.068115234 -12.093628 0.017196655 -15.282608 0c-3.18898 -0.017211914 -2.9292908 0.055923462 -3.8512726 -0.10324097c-0.9219818 -0.15916443 -1.4005432 0.34269714 -1.6806488 -0.85173035c-0.2801056 -1.1944275 0 -3.4355774 0 -6.314804c0 -2.879242 0.031036377 -8.143021 0 -10.960602c-0.031021118 -2.817566 0.07839966 -4.374054 -0.18618774 -5.94487c-0.2645874 -1.570816 -0.6622925 -2.4218292 -1.4013519 -3.4800262c-0.73905945 -1.0582123 -1.8464203 -2.2031555 -3.0330048 -2.8692017c-1.1865845 -0.6660309 -2.705536 -0.9563904 -4.0864716 -1.1270294c-1.3809357 -0.17062378 -2.7602386 -0.119003296 -4.1991577 0.10324097c-1.4389191 0.22225952 -3.1318207 0.8373871 -4.4343567 1.2302704c-1.302536 0.3928833 -2.078354 0.9055023 -3.38089 1.1270294c-1.302536 0.22154236 -3.189804 0.45884705 -4.4343567 0.20217896c-1.2445526 -0.2566681 -2.060379 -1.0252228 -3.0330048 -1.7421722c-0.9726105 -0.7169342 -2.14122 -1.6719055 -2.8027039 -2.5594788c-0.66148376 -0.887558 -0.87461853 -1.6561279 -1.1661682 -2.7659454c-0.29153442 -1.1098328 -0.6998596 -2.5788422 -0.58306885 -3.89299c0.11677551 -1.314148 0.6614685 -2.8828278 1.2837524 -3.991928c0.62228394 -1.1091003 1.6528778 -1.9285736 2.4499207 -2.6627197c0.79704285 -0.7341461 1.4960785 -1.2467575 2.3323212 -1.7421646c0.8362427 -0.4954071 1.6545105 -1.0080185 2.6851196 -1.2302704c1.0305939 -0.22225189 2.4678802 -0.27387238 3.4984741 -0.10324097c1.0306091 0.17063141 1.5957184 0.75135803 2.6851196 1.1270294c1.0894012 0.37567902 2.3927612 0.92198944 3.8512726 1.127037c1.4585266 0.20503998 3.44133 0.22296906 4.8998413 0.10323334c1.4585266 -0.11972809 2.6459198 -0.2408905 3.8512726 -0.8216095c1.205368 -0.5807266 2.486679 -1.5873108 3.38089 -2.6627197c0.8942261 -1.0754089 1.614502 -2.321457 1.984436 -3.7897491c0.36993408 -1.4682922 0.19599915 -3.330185 0.23519897 -5.0200195c0.03919983 -1.689827 0 -2.1995697 0 -5.1189575c0 -2.9193802 0 -9.222008 0 -12.397339c0 -3.175331 0 -5.067337 0 -6.65464c0 -1.5873108 0.058792114 -1.9644165 0 -2.869194c-0.058807373 -0.90478516 0.6002197 -2.1156921 -0.35279846 -2.5594788z" fill-rule="evenodd"/></g></svg>